# xmcd
#
# Track frame offsets: 
#        150
#        16232
#        35300
#        59427
#        80257
#        104262
#        123240
#        151812
#        178627
#        208272
#        228950
#        257292
#        271872
#
# Disc length: 4154 seconds
#
# Revision: 0
# Processed by: cddbd v1.5.2PL0 Copyright (c) Steve Scherf et al.
# Submitted via: ExactAudioCopy v1.0b3
#
DISCID=9a10380d
DTITLE=Harriet Lewis and Gregor Hilden Band - Soulful Stew
DYEAR=2010
DGENRE=Soul
TTITLE0=Wade In The Water
TTITLE1=Hard Drivin' Mama
TTITLE2=Reverend
TTITLE3=Love Sneaking Up On You
TTITLE4=Since I Fell For You
TTITLE5=On Broadway
TTITLE6=Dr. Feelgood
TTITLE7=Soulful Stew
TTITLE8=No Words Can Tell
TTITLE9=What a Difference a Day Makes
TTITLE10=Sunday Kind of Love
TTITLE11=Running and Hiding
TTITLE12=Amazing Grace
EXTD=
EXTT0=
EXTT1=
EXTT2=
EXTT3=
EXTT4=
EXTT5=
EXTT6=
EXTT7=
EXTT8=
EXTT9=
EXTT10=
EXTT11=
EXTT12=
PLAYORDER=
